<svg width="34" height="34" viewBox="0 0 34 34" fill="none" xmlns="http://www.w3.org/2000/svg">
<path d="M23.9833 0.333374H10.0166C3.94992 0.333374 0.333252 3.95004 0.333252 10.0167V23.9667C0.333252 30.05 3.94992 33.6667 10.0166 33.6667H23.9666C30.0333 33.6667 33.6499 30.05 33.6499 23.9834V10.0167C33.6666 3.95004 30.0499 0.333374 23.9833 0.333374ZM21.6499 17.8834L15.7666 23.7667C15.5166 24.0167 15.1999 24.1334 14.8833 24.1334C14.5666 24.1334 14.2499 24.0167 13.9999 23.7667C13.5166 23.2834 13.5166 22.4834 13.9999 22L18.9999 17L13.9999 12C13.5166 11.5167 13.5166 10.7167 13.9999 10.2334C14.4833 9.75004 15.2833 9.75004 15.7666 10.2334L21.6499 16.1167C22.1499 16.6 22.1499 17.4 21.6499 17.8834Z" fill="white"/>
</svg>
