<svg width="24" height="25" viewBox="0 0 24 25" fill="none" xmlns="http://www.w3.org/2000/svg">
<path d="M14.4301 19.4765C14.2401 19.4765 14.0501 19.4065 13.9001 19.2565C13.6101 18.9665 13.6101 18.4865 13.9001 18.1965L19.4401 12.6565L13.9001 7.11649C13.6101 6.82649 13.6101 6.34649 13.9001 6.05649C14.1901 5.76649 14.6701 5.76649 14.9601 6.05649L21.0301 12.1265C21.3201 12.4165 21.3201 12.8965 21.0301 13.1865L14.9601 19.2565C14.8101 19.4065 14.6201 19.4765 14.4301 19.4765Z" fill="white"/>
<path d="M20.33 13.4065H3.5C3.09 13.4065 2.75 13.0665 2.75 12.6565C2.75 12.2465 3.09 11.9065 3.5 11.9065H20.33C20.74 11.9065 21.08 12.2465 21.08 12.6565C21.08 13.0665 20.74 13.4065 20.33 13.4065Z" fill="white"/>
</svg>
