<svg width="32" height="32" viewBox="0 0 32 32" fill="none" xmlns="http://www.w3.org/2000/svg">
<path d="M30.3757 0.375H1.62573C0.934326 0.375 0.375732 0.933594 0.375732 1.625V30.375C0.375732 31.0664 0.934326 31.625 1.62573 31.625H30.3757C31.0671 31.625 31.6257 31.0664 31.6257 30.375V1.625C31.6257 0.933594 31.0671 0.375 30.3757 0.375ZM26.7664 9.49609H24.2703C22.3132 9.49609 21.9343 10.4258 21.9343 11.793V14.8047H26.6062L25.9968 19.5195H21.9343V31.625H17.0632V19.5234H12.989V14.8047H17.0632V11.3281C17.0632 7.29297 19.5281 5.09375 23.1296 5.09375C24.8562 5.09375 26.3367 5.22266 26.7703 5.28125V9.49609H26.7664Z" fill="white"/>
</svg>
