<svg width="30" height="36" viewBox="0 0 30 36" fill="none" xmlns="http://www.w3.org/2000/svg">
<path d="M29.3666 12.0833C27.6166 4.38329 20.8999 0.916626 14.9999 0.916626C14.9999 0.916626 14.9999 0.916626 14.9832 0.916626C9.09991 0.916626 2.36658 4.36663 0.616581 12.0666C-1.33342 20.6666 3.93325 27.95 8.69991 32.5333C10.4666 34.2333 12.7332 35.0833 14.9999 35.0833C17.2666 35.0833 19.5332 34.2333 21.2832 32.5333C26.0499 27.95 31.3166 20.6833 29.3666 12.0833ZM14.9999 20.4333C12.0999 20.4333 9.74992 18.0833 9.74992 15.1833C9.74992 12.2833 12.0999 9.93329 14.9999 9.93329C17.8999 9.93329 20.2499 12.2833 20.2499 15.1833C20.2499 18.0833 17.8999 20.4333 14.9999 20.4333Z" fill="white"/>
</svg>
