<svg width="28" height="34" viewBox="0 0 28 34" fill="none" xmlns="http://www.w3.org/2000/svg">
<path d="M21.0667 0.333374H6.93341C2.33341 0.333374 0.666748 2.00004 0.666748 6.68337V27.3167C0.666748 32 2.33341 33.6667 6.93341 33.6667H21.0501C25.6667 33.6667 27.3334 32 27.3334 27.3167V6.68337C27.3334 2.00004 25.6667 0.333374 21.0667 0.333374ZM14.0001 29.1667C12.4001 29.1667 11.0834 27.85 11.0834 26.25C11.0834 24.65 12.4001 23.3334 14.0001 23.3334C15.6001 23.3334 16.9167 24.65 16.9167 26.25C16.9167 27.85 15.6001 29.1667 14.0001 29.1667ZM17.3334 7.41671H10.6667C9.98341 7.41671 9.41675 6.85004 9.41675 6.16671C9.41675 5.48337 9.98341 4.91671 10.6667 4.91671H17.3334C18.0167 4.91671 18.5834 5.48337 18.5834 6.16671C18.5834 6.85004 18.0167 7.41671 17.3334 7.41671Z" fill="white"/>
</svg>
