<svg width="34" height="28" viewBox="0 0 34 28" fill="none" xmlns="http://www.w3.org/2000/svg">
<path d="M33.2507 3.93361C32.0554 4.44923 30.7546 4.82033 29.4148 4.96486C30.8059 4.13844 31.8476 2.83283 32.3445 1.29298C31.0391 2.0695 29.6091 2.61401 28.1179 2.90236C27.4947 2.23606 26.7409 1.70525 25.9035 1.34301C25.0661 0.980778 24.1631 0.794876 23.2507 0.796891C19.5593 0.796891 16.5906 3.78908 16.5906 7.46095C16.5906 7.97658 16.6531 8.4922 16.7546 8.9883C11.2273 8.69923 6.29761 6.05861 3.02026 2.01564C2.4231 3.03562 2.11016 4.19699 2.11401 5.37892C2.11401 7.69142 3.28979 9.73048 5.08276 10.9297C4.02614 10.8881 2.99426 10.5977 2.07104 10.082V10.1641C2.07104 13.4024 4.36011 16.086 7.41089 16.7031C6.83807 16.8519 6.24881 16.928 5.65698 16.9297C5.22339 16.9297 4.81323 16.8867 4.39917 16.8281C5.24292 19.4688 7.69995 21.3867 10.6257 21.4492C8.33667 23.2422 5.46948 24.2969 2.3562 24.2969C1.79761 24.2969 1.28198 24.2774 0.746826 24.2149C3.69995 26.1094 7.20386 27.2031 10.9773 27.2031C23.2273 27.2031 29.9304 17.0547 29.9304 8.24611C29.9304 7.95705 29.9304 7.66798 29.9109 7.37892C31.2078 6.4297 32.3445 5.25392 33.2507 3.93361Z" fill="white"/>
</svg>
